<?xml version="1.0" standalone="no"?><!DOCTYPE svg PUBLIC "-//W3C//DTD SVG 1.1//EN" "http://www.w3.org/Graphics/SVG/1.1/DTD/svg11.dtd"><svg t="1626916914414" class="icon" viewBox="0 0 1092 1024" version="1.1" xmlns="http://www.w3.org/2000/svg" p-id="4400" xmlns:xlink="http://www.w3.org/1999/xlink" width="213.28125" height="200"><defs><style type="text/css">@font-face { font-family: "feedback-iconfont"; src: url("//at.alicdn.com/t/font_1031158_1uhr8ri0pk5.eot?#iefix") format("embedded-opentype"), url("//at.alicdn.com/t/font_1031158_1uhr8ri0pk5.woff2") format("woff2"), url("//at.alicdn.com/t/font_1031158_1uhr8ri0pk5.woff") format("woff"), url("//at.alicdn.com/t/font_1031158_1uhr8ri0pk5.ttf") format("truetype"), url("//at.alicdn.com/t/font_1031158_1uhr8ri0pk5.svg#iconfont") format("svg"); }
</style></defs><path d="M785.066667 921.6v1.706667c-5.7344-0.341333-11.229867-1.706667-17.066667-1.706667a221.320533 221.320533 0 0 0-186.4704 102.4h-70.792533A221.320533 221.320533 0 0 0 324.266667 921.6c-5.8368 0-11.332267 1.365333-17.066667 1.706667V921.6H0V0h341.333333c94.242133 0 204.8 76.458667 204.8 170.666667 0-94.208 110.557867-170.666667 204.8-170.666667h341.333334v921.6h-307.2z m-273.066667-68.266667V273.066667a204.8 204.8 0 0 0-204.8-204.8H68.266667v785.066666h273.066666a316.1088 316.1088 0 0 1 170.666667 68.266667v-68.266667zM1024 68.266667h-238.933333a204.8 204.8 0 0 0-204.8 204.8v648.533333a270.062933 270.062933 0 0 1 170.666666-68.266667h273.066667V68.266667z" p-id="4401"></path></svg>